<svg xmlns="http://www.w3.org/2000/svg" version="1.1" xmlns:xlink="http://www.w3.org/1999/xlink" xmlns:svgjs="http://svgjs.dev/svgjs" width="1440" height="560" preserveAspectRatio="none" viewBox="0 0 1440 560"><g mask="url(&quot;#SvgjsMask2389&quot;)" fill="none"><rect width="1440" height="560" x="0" y="0" fill="#0e2a47"></rect><g transform="translate(0, 0)" stroke-linecap="round" stroke="url(&quot;#SvgjsRadialGradient2390&quot;)"><path d="M258 250.575 L258 309.425" stroke-width="15.75"></path><path d="M279 227.375 L279 243.125" stroke-width="15.75"></path><path d="M279 266.75 L279 282.5" stroke-width="15.75"></path><path d="M279 306.125 L279 332.625" stroke-width="15.75"></path><path d="M300 253.305 L300 306.695" stroke-width="15.75"></path><path d="M321 178.255 L321 288.505" stroke-width="15.75"></path><path d="M321 312.13 L321 381.745" stroke-width="15.75"></path><path d="M342 123.435 L342 139.185" stroke-width="15.75"></path><path d="M342 162.81 L342 436.565" stroke-width="15.75"></path><path d="M363 266.035 L363 293.965" stroke-width="15.75"></path><path d="M384 109.065 L384 266.565" stroke-width="15.75"></path><path d="M384 290.19 L384 368.94" stroke-width="15.75"></path><path d="M384 392.565 L384 450.935" stroke-width="15.75"></path><path d="M405 130.785 L405 429.225" stroke-width="15.75"></path><path d="M426 139.705 L426 249.955" stroke-width="15.75"></path><path d="M426 273.58000000000004 L426 289.33000000000004" stroke-width="15.75"></path><path d="M426 312.95500000000004 L426 420.295" stroke-width="15.75"></path><path d="M447 203.285 L447 266.28499999999997" stroke-width="15.75"></path><path d="M447 289.90999999999997 L447 305.65999999999997" stroke-width="15.75"></path><path d="M447 329.28499999999997 L447 356.715" stroke-width="15.75"></path><path d="M468 263.21500000000003 L468 296.775" stroke-width="15.75"></path><path d="M489 154.985 L489 186.485" stroke-width="15.75"></path><path d="M489 210.11 L489 320.36" stroke-width="15.75"></path><path d="M489 343.985 L489 405.015" stroke-width="15.75"></path><path d="M510 114.465 L510 193.215" stroke-width="15.75"></path><path d="M510 216.84 L510 279.84000000000003" stroke-width="15.75"></path><path d="M510 303.46500000000003 L510 445.535" stroke-width="15.75"></path><path d="M531 252.385 L531 307.615" stroke-width="15.75"></path><path d="M552 259.995 L552 300.005" stroke-width="15.75"></path><path d="M573 252.405 L573 307.605" stroke-width="15.75"></path><path d="M594 124.315 L594 187.315" stroke-width="15.75"></path><path d="M594 210.94 L594 435.685" stroke-width="15.75"></path><path d="M615 218.905 L615 250.405" stroke-width="15.75"></path><path d="M615 274.03 L615 289.78" stroke-width="15.75"></path><path d="M615 313.405 L615 341.105" stroke-width="15.75"></path><path d="M636 233.075 L636 248.825" stroke-width="15.75"></path><path d="M636 272.45 L636 326.925" stroke-width="15.75"></path><path d="M657 168.585 L657 310.33500000000004" stroke-width="15.75"></path><path d="M657 333.96000000000004 L657 349.71000000000004" stroke-width="15.75"></path><path d="M657 373.33500000000004 L657 391.415" stroke-width="15.75"></path><path d="M678 202.805 L678 265.805" stroke-width="15.75"></path><path d="M678 289.43 L678 305.18" stroke-width="15.75"></path><path d="M678 328.805 L678 357.195" stroke-width="15.75"></path><path d="M699 169.895 L699 217.145" stroke-width="15.75"></path><path d="M699 240.77 L699 335.27" stroke-width="15.75"></path><path d="M699 358.895 L699 390.105" stroke-width="15.75"></path><path d="M720 158.465 L720 284.46500000000003" stroke-width="15.75"></path><path d="M720 308.09000000000003 L720 401.535" stroke-width="15.75"></path><path d="M741 238.815 L741 254.565" stroke-width="15.75"></path><path d="M741 278.19 L741 321.185" stroke-width="15.75"></path><path d="M762 109.815 L762 330.315" stroke-width="15.75"></path><path d="M762 353.94 L762 450.185" stroke-width="15.75"></path><path d="M783 155.385 L783 297.135" stroke-width="15.75"></path><path d="M783 320.76 L783 404.615" stroke-width="15.75"></path><path d="M804 233.465 L804 249.215" stroke-width="15.75"></path><path d="M804 272.84000000000003 L804 326.525" stroke-width="15.75"></path><path d="M825 267.735 L825 292.265" stroke-width="15.75"></path><path d="M846 202.385 L846 233.885" stroke-width="15.75"></path><path d="M846 257.51 L846 289.01" stroke-width="15.75"></path><path d="M846 312.635 L846 357.615" stroke-width="15.75"></path><path d="M867 256.46500000000003 L867 303.535" stroke-width="15.75"></path><path d="M888 181.695 L888 276.195" stroke-width="15.75"></path><path d="M888 299.82 L888 378.305" stroke-width="15.75"></path><path d="M909 232.635 L909 279.885" stroke-width="15.75"></path><path d="M909 303.51 L909 327.365" stroke-width="15.75"></path><path d="M930 257.775 L930 302.225" stroke-width="15.75"></path><path d="M951 256.275 L951 303.735" stroke-width="15.75"></path><path d="M972 194.895 L972 305.145" stroke-width="15.75"></path><path d="M972 328.77 L972 365.105" stroke-width="15.75"></path><path d="M993 168.435 L993 231.435" stroke-width="15.75"></path><path d="M993 255.06 L993 286.56" stroke-width="15.75"></path><path d="M993 310.185 L993 391.565" stroke-width="15.75"></path><path d="M1014 187.345 L1014 250.345" stroke-width="15.75"></path><path d="M1014 273.97 L1014 305.47" stroke-width="15.75"></path><path d="M1014 329.095 L1014 372.655" stroke-width="15.75"></path><path d="M1035 256.815 L1035 303.185" stroke-width="15.75"></path><path d="M1056 125.875 L1056 434.125" stroke-width="15.75"></path><path d="M1077 195.135 L1077 242.385" stroke-width="15.75"></path><path d="M1077 266.01 L1077 297.51" stroke-width="15.75"></path><path d="M1077 321.135 L1077 364.865" stroke-width="15.75"></path><path d="M1098 250.845 L1098 309.155" stroke-width="15.75"></path><path d="M1119 187.235 L1119 202.985" stroke-width="15.75"></path><path d="M1119 226.61 L1119 258.11" stroke-width="15.75"></path><path d="M1119 281.735 L1119 372.765" stroke-width="15.75"></path><path d="M1140 181.135 L1140 212.635" stroke-width="15.75"></path><path d="M1140 236.26 L1140 378.865" stroke-width="15.75"></path><path d="M1161 156.005 L1161 250.505" stroke-width="15.75"></path><path d="M1161 274.13 L1161 403.995" stroke-width="15.75"></path><path d="M1182 128.385 L1182 222.885" stroke-width="15.75"></path><path d="M1182 246.51 L1182 341.01" stroke-width="15.75"></path><path d="M1182 364.635 L1182 431.615" stroke-width="15.75"></path></g></g><defs><mask id="SvgjsMask2389"><rect width="1440" height="560" fill="#ffffff"></rect></mask><radialGradient cx="720" cy="95.19999999999999" r="602.01" gradientUnits="userSpaceOnUse" id="SvgjsRadialGradient2390"><stop stop-color="rgba(98, 174, 255, 1)" offset="0.44"></stop><stop stop-color="rgba(86, 15, 248, 0.78)" offset="1"></stop></radialGradient></defs></svg>