<svg xmlns="http://www.w3.org/2000/svg" version="1.1" xmlns:xlink="http://www.w3.org/1999/xlink" xmlns:svgjs="http://svgjs.dev/svgjs" width="1440" height="560" preserveAspectRatio="none" viewBox="0 0 1440 560"><g mask="url(&quot;#SvgjsMask2379&quot;)" fill="none"><rect width="1440" height="560" x="0" y="0" fill="#0e2a47"></rect><g transform="translate(0, 0)" stroke-linecap="round" stroke="url(&quot;#SvgjsRadialGradient2380&quot;)"><path d="M270 127.45 L270 307.45" stroke-width="22.5"></path><path d="M270 341.2 L270 432.55" stroke-width="22.5"></path><path d="M300 106.94 L300 219.44" stroke-width="22.5"></path><path d="M300 253.19 L300 320.69" stroke-width="22.5"></path><path d="M300 354.44 L300 453.06" stroke-width="22.5"></path><path d="M330 269.14 L330 290.86" stroke-width="22.5"></path><path d="M360 255.07 L360 304.93" stroke-width="22.5"></path><path d="M390 140.31 L390 252.81" stroke-width="22.5"></path><path d="M390 286.56 L390 331.56" stroke-width="22.5"></path><path d="M390 365.31 L390 419.69" stroke-width="22.5"></path><path d="M420 140.81 L420 275.81" stroke-width="22.5"></path><path d="M420 309.56 L420 419.19" stroke-width="22.5"></path><path d="M450 219.68 L450 340.32" stroke-width="22.5"></path><path d="M480 139.84 L480 184.84" stroke-width="22.5"></path><path d="M480 218.59 L480 420.16" stroke-width="22.5"></path><path d="M510 110.17 L510 449.83" stroke-width="22.5"></path><path d="M540 246.88 L540 313.13" stroke-width="22.5"></path><path d="M570 160.43 L570 205.43" stroke-width="22.5"></path><path d="M570 239.18 L570 284.18" stroke-width="22.5"></path><path d="M570 317.93 L570 399.57" stroke-width="22.5"></path><path d="M600 151.94 L600 264.44" stroke-width="22.5"></path><path d="M600 298.19 L600 343.19" stroke-width="22.5"></path><path d="M600 376.94 L600 408.06" stroke-width="22.5"></path><path d="M630 207.02 L630 229.52" stroke-width="22.5"></path><path d="M630 263.27 L630 285.77" stroke-width="22.5"></path><path d="M630 319.52 L630 352.98" stroke-width="22.5"></path><path d="M660 221.8 L660 244.3" stroke-width="22.5"></path><path d="M660 278.05 L660 338.2" stroke-width="22.5"></path><path d="M690 263.7 L690 296.3" stroke-width="22.5"></path><path d="M720 202.25 L720 247.25" stroke-width="22.5"></path><path d="M720 281 L720 357.75" stroke-width="22.5"></path><path d="M750 243.38 L750 316.62" stroke-width="22.5"></path><path d="M780 266.1 L780 293.89" stroke-width="22.5"></path><path d="M810 110.24 L810 290.24" stroke-width="22.5"></path><path d="M810 323.99 L810 368.99" stroke-width="22.5"></path><path d="M810 402.74 L810 449.76" stroke-width="22.5"></path><path d="M840 221.89 L840 244.39" stroke-width="22.5"></path><path d="M840 278.14 L840 338.11" stroke-width="22.5"></path><path d="M870 143.36 L870 210.86" stroke-width="22.5"></path><path d="M870 244.61 L870 267.11" stroke-width="22.5"></path><path d="M870 300.86 L870 416.64" stroke-width="22.5"></path><path d="M900 117.41 L900 364.90999999999997" stroke-width="22.5"></path><path d="M900 398.65999999999997 L900 442.59" stroke-width="22.5"></path><path d="M930 200.15 L930 267.65" stroke-width="22.5"></path><path d="M930 301.4 L930 359.85" stroke-width="22.5"></path><path d="M960 239.87 L960 320.13" stroke-width="22.5"></path><path d="M990 235.63 L990 324.37" stroke-width="22.5"></path><path d="M1020 168.51 L1020 281.01" stroke-width="22.5"></path><path d="M1020 314.76 L1020 391.49" stroke-width="22.5"></path><path d="M1050 145.13 L1050 190.13" stroke-width="22.5"></path><path d="M1050 223.88 L1050 313.88" stroke-width="22.5"></path><path d="M1050 347.63 L1050 414.88" stroke-width="22.5"></path><path d="M1080 229.17 L1080 251.67" stroke-width="22.5"></path><path d="M1080 285.41999999999996 L1080 330.83" stroke-width="22.5"></path><path d="M1110 206.03 L1110 251.03" stroke-width="22.5"></path><path d="M1110 284.78 L1110 353.98" stroke-width="22.5"></path><path d="M1140 140.72 L1140 230.72" stroke-width="22.5"></path><path d="M1140 264.47 L1140 419.27" stroke-width="22.5"></path><path d="M1170 195.26 L1170 364.74" stroke-width="22.5"></path></g></g><defs><mask id="SvgjsMask2379"><rect width="1440" height="560" fill="#ffffff"></rect></mask><radialGradient cx="720" cy="95.19999999999999" r="602.01" gradientUnits="userSpaceOnUse" id="SvgjsRadialGradient2380"><stop stop-color="rgba(98, 174, 255, 1)" offset="0.44"></stop><stop stop-color="rgba(86, 15, 248, 0.78)" offset="1"></stop></radialGradient></defs></svg>