<svg xmlns="http://www.w3.org/2000/svg" version="1.1" xmlns:xlink="http://www.w3.org/1999/xlink" xmlns:svgjs="http://svgjs.dev/svgjs" width="1440" height="560" preserveAspectRatio="none" viewBox="0 0 1440 560"><g mask="url(&quot;#SvgjsMask2439&quot;)" fill="none"><rect width="1440" height="560" x="0" y="0" fill="#0e2a47"></rect><g transform="translate(0, 0)" stroke-linecap="round" stroke="url(&quot;#SvgjsRadialGradient2440&quot;)"><path d="M252 123.215 L252 436.785" stroke-width="6.75"></path><path d="M261 260.085 L261 273.585" stroke-width="6.75"></path><path d="M261 283.71 L261 299.915" stroke-width="6.75"></path><path d="M270 131.035 L270 252.535" stroke-width="6.75"></path><path d="M270 262.65999999999997 L270 384.15999999999997" stroke-width="6.75"></path><path d="M270 394.28499999999997 L270 428.965" stroke-width="6.75"></path><path d="M279 146.595 L279 173.595" stroke-width="6.75"></path><path d="M279 183.72 L279 413.405" stroke-width="6.75"></path><path d="M288 159.725 L288 247.475" stroke-width="6.75"></path><path d="M288 257.6 L288 400.275" stroke-width="6.75"></path><path d="M297 241.285 L297 318.705" stroke-width="6.75"></path><path d="M306 229.975 L306 330.025" stroke-width="6.75"></path><path d="M315 229.745 L315 283.745" stroke-width="6.75"></path><path d="M315 293.87 L315 330.255" stroke-width="6.75"></path><path d="M324 110.505 L324 279.255" stroke-width="6.75"></path><path d="M324 289.38 L324 449.505" stroke-width="6.75"></path><path d="M333 149.165 L333 365.16499999999996" stroke-width="6.75"></path><path d="M333 375.28999999999996 L333 388.78999999999996" stroke-width="6.75"></path><path d="M333 398.91499999999996 L333 410.835" stroke-width="6.75"></path><path d="M342 251.825 L342 265.325" stroke-width="6.75"></path><path d="M342 275.45 L342 308.175" stroke-width="6.75"></path><path d="M351 138.415 L351 165.415" stroke-width="6.75"></path><path d="M351 175.54 L351 421.585" stroke-width="6.75"></path><path d="M360 206.185 L360 287.185" stroke-width="6.75"></path><path d="M360 297.31 L360 324.31" stroke-width="6.75"></path><path d="M360 334.435 L360 353.815" stroke-width="6.75"></path><path d="M369 133.185 L369 241.185" stroke-width="6.75"></path><path d="M369 251.31 L369 386.31" stroke-width="6.75"></path><path d="M369 396.435 L369 426.815" stroke-width="6.75"></path><path d="M378 102.855 L378 457.145" stroke-width="6.75"></path><path d="M387 260.275 L387 299.725" stroke-width="6.75"></path><path d="M396 190.155 L396 318.405" stroke-width="6.75"></path><path d="M396 328.53 L396 369.845" stroke-width="6.75"></path><path d="M405 245.795 L405 266.04499999999996" stroke-width="6.75"></path><path d="M405 276.16999999999996 L405 289.66999999999996" stroke-width="6.75"></path><path d="M405 299.79499999999996 L405 314.205" stroke-width="6.75"></path><path d="M414 200.715 L414 315.46500000000003" stroke-width="6.75"></path><path d="M414 325.59000000000003 L414 332.34000000000003" stroke-width="6.75"></path><path d="M414 342.46500000000003 L414 359.275" stroke-width="6.75"></path><path d="M423 194.895 L423 323.145" stroke-width="6.75"></path><path d="M423 333.27 L423 346.77" stroke-width="6.75"></path><path d="M423 356.895 L423 365.105" stroke-width="6.75"></path><path d="M432 249.265 L432 256.015" stroke-width="6.75"></path><path d="M432 266.14 L432 272.89" stroke-width="6.75"></path><path d="M432 283.015 L432 310.735" stroke-width="6.75"></path><path d="M441 210.005 L441 216.755" stroke-width="6.75"></path><path d="M441 226.88 L441 350.005" stroke-width="6.75"></path><path d="M450 203.395 L450 311.395" stroke-width="6.75"></path><path d="M450 321.52 L450 356.605" stroke-width="6.75"></path><path d="M459 221.735 L459 295.985" stroke-width="6.75"></path><path d="M459 306.11 L459 319.61" stroke-width="6.75"></path><path d="M459 329.735 L459 338.265" stroke-width="6.75"></path><path d="M468 154.655 L468 276.155" stroke-width="6.75"></path><path d="M468 286.28 L468 374.03" stroke-width="6.75"></path><path d="M468 384.155 L468 405.355" stroke-width="6.75"></path><path d="M477 239.735 L477 320.265" stroke-width="6.75"></path><path d="M486 131.495 L486 192.245" stroke-width="6.75"></path><path d="M486 202.37 L486 398.12" stroke-width="6.75"></path><path d="M486 408.245 L486 428.505" stroke-width="6.75"></path><path d="M495 254.695 L495 305.305" stroke-width="6.75"></path><path d="M504 125.845 L504 281.095" stroke-width="6.75"></path><path d="M504 291.22 L504 434.155" stroke-width="6.75"></path><path d="M513 119.585 L513 349.085" stroke-width="6.75"></path><path d="M513 359.21 L513 372.71" stroke-width="6.75"></path><path d="M513 382.835 L513 440.415" stroke-width="6.75"></path><path d="M522 183.205 L522 324.95500000000004" stroke-width="6.75"></path><path d="M522 335.08000000000004 L522 376.795" stroke-width="6.75"></path><path d="M531 136.815 L531 423.185" stroke-width="6.75"></path><path d="M540 222.425 L540 276.425" stroke-width="6.75"></path><path d="M540 286.55 L540 306.8" stroke-width="6.75"></path><path d="M540 316.925 L540 337.575" stroke-width="6.75"></path><path d="M549 142.825 L549 183.325" stroke-width="6.75"></path><path d="M549 193.45 L549 417.175" stroke-width="6.75"></path><path d="M558 129.625 L558 203.875" stroke-width="6.75"></path><path d="M558 214 L558 382.75" stroke-width="6.75"></path><path d="M558 392.875 L558 430.375" stroke-width="6.75"></path><path d="M567 206.675 L567 314.675" stroke-width="6.75"></path><path d="M567 324.8 L567 331.55" stroke-width="6.75"></path><path d="M567 341.675 L567 353.325" stroke-width="6.75"></path><path d="M576 253.865 L576 267.365" stroke-width="6.75"></path><path d="M576 277.49 L576 284.24" stroke-width="6.75"></path><path d="M576 294.365 L576 306.135" stroke-width="6.75"></path><path d="M585 117.215 L585 137.465" stroke-width="6.75"></path><path d="M585 147.59 L585 201.59" stroke-width="6.75"></path><path d="M585 211.715 L585 442.785" stroke-width="6.75"></path><path d="M594 252.385 L594 272.635" stroke-width="6.75"></path><path d="M594 282.76 L594 289.51" stroke-width="6.75"></path><path d="M594 299.635 L594 307.615" stroke-width="6.75"></path><path d="M603 262.835 L603 297.165" stroke-width="6.75"></path><path d="M612 211.075 L612 251.575" stroke-width="6.75"></path><path d="M612 261.7 L612 322.45" stroke-width="6.75"></path><path d="M612 332.575 L612 348.925" stroke-width="6.75"></path><path d="M621 236.025 L621 269.775" stroke-width="6.75"></path><path d="M621 279.9 L621 306.9" stroke-width="6.75"></path><path d="M621 317.025 L621 323.985" stroke-width="6.75"></path><path d="M630 244.785 L630 315.215" stroke-width="6.75"></path><path d="M639 99.715 L639 214.465" stroke-width="6.75"></path><path d="M639 224.59 L639 285.34000000000003" stroke-width="6.75"></path><path d="M639 295.46500000000003 L639 460.275" stroke-width="6.75"></path><path d="M648 121.755 L648 438.245" stroke-width="6.75"></path><path d="M657 224.775 L657 251.775" stroke-width="6.75"></path><path d="M657 261.9 L657 335.235" stroke-width="6.75"></path><path d="M666 161.185 L666 181.435" stroke-width="6.75"></path><path d="M666 191.56 L666 211.81" stroke-width="6.75"></path><path d="M666 221.935 L666 398.815" stroke-width="6.75"></path><path d="M675 148.685 L675 276.935" stroke-width="6.75"></path><path d="M675 287.06 L675 411.315" stroke-width="6.75"></path><path d="M684 128.225 L684 202.475" stroke-width="6.75"></path><path d="M684 212.6 L684 300.35" stroke-width="6.75"></path><path d="M684 310.475 L684 431.775" stroke-width="6.75"></path><path d="M693 153.525 L693 234.525" stroke-width="6.75"></path><path d="M693 244.65 L693 406.475" stroke-width="6.75"></path><path d="M702 207.865 L702 302.365" stroke-width="6.75"></path><path d="M702 312.49 L702 352.135" stroke-width="6.75"></path><path d="M711 240.595 L711 274.345" stroke-width="6.75"></path><path d="M711 284.47 L711 319.405" stroke-width="6.75"></path><path d="M720 240.755 L720 254.255" stroke-width="6.75"></path><path d="M720 264.38 L720 291.38" stroke-width="6.75"></path><path d="M720 301.505 L720 319.245" stroke-width="6.75"></path><path d="M729 184.265 L729 278.765" stroke-width="6.75"></path><path d="M729 288.89 L729 375.735" stroke-width="6.75"></path><path d="M738 138.865 L738 354.865" stroke-width="6.75"></path><path d="M738 364.99 L738 398.74" stroke-width="6.75"></path><path d="M738 408.865 L738 421.135" stroke-width="6.75"></path><path d="M747 111.635 L747 388.385" stroke-width="6.75"></path><path d="M747 398.51 L747 412.01" stroke-width="6.75"></path><path d="M747 422.135 L747 448.365" stroke-width="6.75"></path><path d="M756 110.135 L756 245.135" stroke-width="6.75"></path><path d="M756 255.26 L756 449.865" stroke-width="6.75"></path><path d="M765 251.115 L765 308.885" stroke-width="6.75"></path><path d="M774 199.825 L774 307.825" stroke-width="6.75"></path><path d="M774 317.95 L774 338.2" stroke-width="6.75"></path><path d="M774 348.325 L774 360.175" stroke-width="6.75"></path><path d="M783 128.405 L783 222.905" stroke-width="6.75"></path><path d="M783 233.03 L783 381.53" stroke-width="6.75"></path><path d="M783 391.655 L783 431.605" stroke-width="6.75"></path><path d="M792 164.875 L792 191.875" stroke-width="6.75"></path><path d="M792 202 L792 208.75" stroke-width="6.75"></path><path d="M792 218.875 L792 395.125" stroke-width="6.75"></path><path d="M801 241.135 L801 254.635" stroke-width="6.75"></path><path d="M801 264.76 L801 291.76" stroke-width="6.75"></path><path d="M801 301.885 L801 318.865" stroke-width="6.75"></path><path d="M810 235.065 L810 275.565" stroke-width="6.75"></path><path d="M810 285.69 L810 324.935" stroke-width="6.75"></path><path d="M819 100.635 L819 336.885" stroke-width="6.75"></path><path d="M819 347.01 L819 459.365" stroke-width="6.75"></path><path d="M828 164.675 L828 178.175" stroke-width="6.75"></path><path d="M828 188.3 L828 395.325" stroke-width="6.75"></path><path d="M837 258.845 L837 265.595" stroke-width="6.75"></path><path d="M837 275.72 L837 282.47" stroke-width="6.75"></path><path d="M837 292.595 L837 301.165" stroke-width="6.75"></path><path d="M846 99.395 L846 355.895" stroke-width="6.75"></path><path d="M846 366.02 L846 460.605" stroke-width="6.75"></path><path d="M855 231.095 L855 285.095" stroke-width="6.75"></path><path d="M855 295.22 L855 301.97" stroke-width="6.75"></path><path d="M855 312.095 L855 328.905" stroke-width="6.75"></path><path d="M864 141.805 L864 249.805" stroke-width="6.75"></path><path d="M864 259.93 L864 273.43" stroke-width="6.75"></path><path d="M864 283.555 L864 418.195" stroke-width="6.75"></path><path d="M873 225.215 L873 279.21500000000003" stroke-width="6.75"></path><path d="M873 289.34000000000003 L873 334.795" stroke-width="6.75"></path><path d="M882 132.805 L882 342.055" stroke-width="6.75"></path><path d="M882 352.18 L882 427.195" stroke-width="6.75"></path><path d="M891 209.605 L891 290.605" stroke-width="6.75"></path><path d="M891 300.73 L891 314.23" stroke-width="6.75"></path><path d="M891 324.355 L891 350.395" stroke-width="6.75"></path><path d="M900 261.615 L900 268.365" stroke-width="6.75"></path><path d="M900 278.49 L900 298.385" stroke-width="6.75"></path><path d="M909 129.095 L909 250.595" stroke-width="6.75"></path><path d="M909 260.72 L909 267.47" stroke-width="6.75"></path><path d="M909 277.595 L909 430.895" stroke-width="6.75"></path><path d="M918 129.025 L918 257.275" stroke-width="6.75"></path><path d="M918 267.4 L918 430.985" stroke-width="6.75"></path><path d="M927 165.625 L927 233.125" stroke-width="6.75"></path><path d="M927 243.25 L927 394.375" stroke-width="6.75"></path><path d="M936 263.695 L936 296.305" stroke-width="6.75"></path><path d="M945 209.875 L945 290.875" stroke-width="6.75"></path><path d="M945 301 L945 350.125" stroke-width="6.75"></path><path d="M954 153.775 L954 349.525" stroke-width="6.75"></path><path d="M954 359.65 L954 373.15" stroke-width="6.75"></path><path d="M954 383.275 L954 406.225" stroke-width="6.75"></path><path d="M963 225.225 L963 334.765" stroke-width="6.75"></path><path d="M972 203.605 L972 271.105" stroke-width="6.75"></path><path d="M972 281.23 L972 356.395" stroke-width="6.75"></path><path d="M981 156.205 L981 270.95500000000004" stroke-width="6.75"></path><path d="M981 281.08000000000004 L981 375.58000000000004" stroke-width="6.75"></path><path d="M981 385.70500000000004 L981 403.795" stroke-width="6.75"></path><path d="M990 162.385 L990 189.385" stroke-width="6.75"></path><path d="M990 199.51 L990 219.76" stroke-width="6.75"></path><path d="M990 229.885 L990 397.615" stroke-width="6.75"></path><path d="M999 234.705 L999 325.295" stroke-width="6.75"></path><path d="M1008 198.285 L1008 299.53499999999997" stroke-width="6.75"></path><path d="M1008 309.65999999999997 L1008 361.725" stroke-width="6.75"></path><path d="M1017 259.615 L1017 300.385" stroke-width="6.75"></path><path d="M1026 216.065 L1026 276.815" stroke-width="6.75"></path><path d="M1026 286.94 L1026 343.935" stroke-width="6.75"></path><path d="M1035 216.925 L1035 304.675" stroke-width="6.75"></path><path d="M1035 314.8 L1035 343.075" stroke-width="6.75"></path><path d="M1044 254.035 L1044 260.78499999999997" stroke-width="6.75"></path><path d="M1044 270.90999999999997 L1044 284.40999999999997" stroke-width="6.75"></path><path d="M1044 294.53499999999997 L1044 305.965" stroke-width="6.75"></path><path d="M1053 142.595 L1053 264.095" stroke-width="6.75"></path><path d="M1053 274.22 L1053 294.47" stroke-width="6.75"></path><path d="M1053 304.595 L1053 417.405" stroke-width="6.75"></path><path d="M1062 123.765 L1062 144.015" stroke-width="6.75"></path><path d="M1062 154.14 L1062 436.235" stroke-width="6.75"></path><path d="M1071 137.625 L1071 211.875" stroke-width="6.75"></path><path d="M1071 222 L1071 422.375" stroke-width="6.75"></path><path d="M1080 239.615 L1080 280.115" stroke-width="6.75"></path><path d="M1080 290.24 L1080 296.99" stroke-width="6.75"></path><path d="M1080 307.115 L1080 320.385" stroke-width="6.75"></path><path d="M1089 121.775 L1089 317.525" stroke-width="6.75"></path><path d="M1089 327.65 L1089 401.9" stroke-width="6.75"></path><path d="M1089 412.025 L1089 438.225" stroke-width="6.75"></path><path d="M1098 122.135 L1098 182.885" stroke-width="6.75"></path><path d="M1098 193.01 L1098 301.01" stroke-width="6.75"></path><path d="M1098 311.135 L1098 437.865" stroke-width="6.75"></path><path d="M1107 252.035 L1107 307.975" stroke-width="6.75"></path><path d="M1116 242.285 L1116 317.705" stroke-width="6.75"></path><path d="M1125 238.155 L1125 265.155" stroke-width="6.75"></path><path d="M1125 275.28 L1125 321.845" stroke-width="6.75"></path><path d="M1134 99.815 L1134 133.565" stroke-width="6.75"></path><path d="M1134 143.69 L1134 460.185" stroke-width="6.75"></path><path d="M1143 177.995 L1143 191.495" stroke-width="6.75"></path><path d="M1143 201.62 L1143 382.005" stroke-width="6.75"></path><path d="M1152 195.125 L1152 201.875" stroke-width="6.75"></path><path d="M1152 212 L1152 364.875" stroke-width="6.75"></path><path d="M1161 210.125 L1161 349.875" stroke-width="6.75"></path><path d="M1170 135.455 L1170 297.45500000000004" stroke-width="6.75"></path><path d="M1170 307.58000000000004 L1170 321.08000000000004" stroke-width="6.75"></path><path d="M1170 331.20500000000004 L1170 424.545" stroke-width="6.75"></path><path d="M1179 100.845 L1179 235.845" stroke-width="6.75"></path><path d="M1179 245.97 L1179 367.47" stroke-width="6.75"></path><path d="M1179 377.595 L1179 459.155" stroke-width="6.75"></path><path d="M1188 148.885 L1188 290.635" stroke-width="6.75"></path><path d="M1188 300.76 L1188 327.76" stroke-width="6.75"></path><path d="M1188 337.885 L1188 411.115" stroke-width="6.75"></path></g></g><defs><mask id="SvgjsMask2439"><rect width="1440" height="560" fill="#ffffff"></rect></mask><radialGradient cx="720" cy="95.19999999999999" r="602.01" gradientUnits="userSpaceOnUse" id="SvgjsRadialGradient2440"><stop stop-color="rgba(98, 174, 255, 1)" offset="0.44"></stop><stop stop-color="rgba(86, 15, 248, 0.78)" offset="1"></stop></radialGradient></defs></svg>